<svg width="53" height="19" viewBox="0 0 53 19" fill="none" xmlns="http://www.w3.org/2000/svg">
<path d="M11.928 14.808H5.256L4.152 18H0.624L6.648 1.224H10.56L16.584 18H13.032L11.928 14.808ZM11.016 12.12L8.592 5.112L6.168 12.12H11.016ZM31.7237 18L29.8997 16.2C28.3477 17.592 26.4517 18.288 24.2117 18.288C22.9797 18.288 21.8917 18.08 20.9477 17.664C20.0197 17.232 19.2997 16.632 18.7877 15.864C18.2757 15.08 18.0197 14.176 18.0197 13.152C18.0197 12.048 18.3317 11.056 18.9557 10.176C19.5797 9.296 20.4997 8.584 21.7157 8.04C21.2837 7.512 20.9717 7.008 20.7797 6.528C20.5877 6.032 20.4917 5.504 20.4917 4.944C20.4917 4.176 20.6917 3.488 21.0917 2.88C21.4917 2.256 22.0597 1.768 22.7957 1.416C23.5477 1.064 24.4197 0.887999 25.4117 0.887999C26.4197 0.887999 27.2837 1.08 28.0037 1.464C28.7237 1.848 29.2597 2.36 29.6117 3C29.9637 3.64 30.1157 4.352 30.0677 5.136H26.8037C26.8197 4.608 26.6917 4.208 26.4197 3.936C26.1477 3.648 25.7797 3.504 25.3157 3.504C24.8677 3.504 24.4917 3.64 24.1877 3.912C23.8997 4.168 23.7557 4.504 23.7557 4.92C23.7557 5.32 23.8757 5.72 24.1157 6.12C24.3557 6.504 24.7477 6.984 25.2917 7.56L29.5157 11.736C29.5477 11.704 29.5717 11.672 29.5877 11.64C29.6037 11.608 29.6197 11.576 29.6357 11.544L31.0037 9.264H34.5077L32.8277 12.216C32.5077 12.84 32.1637 13.432 31.7957 13.992L35.8517 18H31.7237ZM24.3077 15.504C25.6197 15.504 26.7797 15.04 27.7877 14.112L23.6597 10.032C22.1077 10.72 21.3317 11.696 21.3317 12.96C21.3317 13.68 21.6037 14.288 22.1477 14.784C22.6917 15.264 23.4117 15.504 24.3077 15.504ZM47.7874 14.808H41.1154L40.0114 18H36.4834L42.5074 1.224H46.4194L52.4434 18H48.8914L47.7874 14.808ZM46.8754 12.12L44.4514 5.112L42.0274 12.12H46.8754Z" fill="white"/>
</svg>
